<svg width="458" height="384" viewBox="0 0 458 384" fill="none" xmlns="http://www.w3.org/2000/svg">
<path d="M298.144 379.706L212.347 225.069C212.323 224.69 212.206 224.323 212.006 224.001C211.806 223.679 211.53 223.411 211.202 223.22C210.826 223.005 210.396 222.901 209.963 222.921C209.949 222.92 209.935 222.921 209.921 222.92C209.907 222.921 209.893 222.92 209.879 222.921C209.292 222.893 208.717 223.094 208.275 223.48C207.832 223.867 207.556 224.409 207.505 224.995L116.573 379.706C116.421 379.968 116.323 380.258 116.283 380.558C116.243 380.858 116.263 381.164 116.342 381.456C116.42 381.749 116.555 382.023 116.74 382.263C116.924 382.504 117.154 382.705 117.416 382.857C117.679 383.008 117.968 383.106 118.269 383.146C118.569 383.185 118.874 383.165 119.167 383.087C119.459 383.008 119.734 382.873 119.974 382.689C120.214 382.504 120.416 382.274 120.567 382.012L209.86 230.09L294.15 382.012C294.301 382.274 294.503 382.504 294.743 382.689C294.983 382.873 295.258 383.008 295.55 383.087C295.843 383.165 296.148 383.185 296.448 383.146C296.749 383.106 297.038 383.008 297.301 382.857C297.563 382.705 297.793 382.504 297.977 382.263C298.162 382.023 298.297 381.749 298.375 381.456C298.454 381.164 298.473 380.858 298.434 380.558C298.394 380.258 298.296 379.968 298.144 379.706Z" fill="#3F3D56"/>
<path d="M195.704 353.175L205.402 350.95L201.435 312.499L187.122 315.781L195.704 353.175Z" fill="#FFB6B6"/>
<path d="M203.202 334.599L189.401 337.764L184.988 329.143L184.738 328.838C182.781 326.436 181.694 323.442 181.656 320.344L170.185 290.011L169.247 289.565C168.521 289.22 167.878 288.725 167.359 288.111C166.84 287.498 166.459 286.781 166.239 286.008C166.02 285.235 165.968 284.424 166.087 283.63C166.206 282.836 166.493 282.076 166.929 281.401L165.715 278.19L131.449 278.253L131.414 278.243L89.3363 266.444L93.7545 240.115L105.591 247.558C109.491 247.305 176.304 243.204 182.476 258.173C187.973 271.502 195.893 294.274 201.57 311.031C201.853 311.783 202.205 312.508 202.621 313.195C203.504 314.555 204.022 316.119 204.126 317.737C204.193 318.441 204.327 319.137 204.527 319.815C206.887 326.866 203.292 334.413 203.256 334.489L203.202 334.599Z" fill="#2F2E41"/>
<path d="M192.428 349.96L195.581 349.236L206.742 341.409L214.488 344.9L214.489 344.899C218.218 344.045 222.133 344.705 225.375 346.736C228.616 348.767 230.918 352.002 231.773 355.729L231.878 356.186L195.759 364.471L192.428 349.96Z" fill="#2F2E41"/>
<path d="M56.9619 347.076C55.4835 346.767 54.1631 345.943 53.2364 344.75C52.3098 343.558 51.8373 342.075 51.9033 340.567C51.9066 340.505 51.9336 340.447 51.9786 340.405C52.0237 340.363 52.0833 340.34 52.1449 340.342C52.2065 340.343 52.2652 340.368 52.3088 340.411C52.3523 340.455 52.3773 340.513 52.3783 340.575C52.3143 341.98 52.7545 343.361 53.6197 344.469C54.4849 345.578 55.7179 346.341 57.0963 346.62C57.3958 346.681 57.2597 347.136 56.9619 347.076H56.9619Z" fill="white"/>
<path d="M59.3796 359.884C61.9784 358.217 63.8533 355.632 64.6305 352.645C64.7072 352.349 65.1627 352.484 65.0861 352.78C64.2715 355.887 62.3149 358.572 59.6068 360.301C59.3485 360.465 59.1228 360.047 59.3796 359.884H59.3796Z" fill="white"/>
<path d="M61.184 333.905C61.7311 334.144 62.329 334.243 62.9239 334.194C63.5188 334.144 64.0921 333.948 64.5924 333.622C64.8484 333.454 65.0739 333.873 64.8195 334.039C64.2651 334.396 63.6317 334.612 62.9745 334.668C62.3174 334.724 61.6565 334.619 61.0496 334.361C60.9904 334.341 60.9408 334.3 60.911 334.245C60.8812 334.19 60.8733 334.126 60.889 334.066C60.9071 334.005 60.9483 333.955 61.0035 333.925C61.0587 333.895 61.1236 333.888 61.184 333.905H61.184Z" fill="white"/>
<path d="M88.9307 347.052C89.2238 347.571 89.6414 348.01 90.1462 348.329C90.6509 348.648 91.2269 348.836 91.8224 348.877C92.1279 348.897 92.0561 349.367 91.7526 349.347C91.0949 349.298 90.459 349.09 89.9005 348.739C89.3421 348.388 88.8781 347.906 88.5491 347.334C88.5135 347.283 88.4989 347.22 88.508 347.159C88.5172 347.097 88.5495 347.041 88.5984 347.002C88.6491 346.965 88.7125 346.949 88.7747 346.959C88.8369 346.968 88.893 347.001 88.9307 347.052H88.9307Z" fill="white"/>
<path d="M319.106 325.747C324.829 332.588 328.251 341.057 328.885 349.952C329.055 351.864 328.923 353.792 328.493 355.663C328.015 357.472 327.062 359.121 325.731 360.437C324.515 361.689 323.126 362.83 322.236 364.356C321.792 365.143 321.52 366.016 321.437 366.917C321.354 367.817 321.462 368.725 321.755 369.581C322.428 371.732 323.835 373.513 325.271 375.207C326.865 377.087 328.551 379.016 329.176 381.461C329.252 381.757 329.707 381.623 329.632 381.327C328.545 377.072 324.528 374.546 322.698 370.687C321.844 368.886 321.528 366.817 322.442 364.974C323.241 363.363 324.672 362.186 325.915 360.928C327.231 359.663 328.218 358.095 328.789 356.361C329.313 354.517 329.519 352.598 329.399 350.686C329.197 346.376 328.318 342.124 326.795 338.087C325.082 333.47 322.592 329.179 319.432 325.401C319.236 325.168 318.912 325.515 319.106 325.747L319.106 325.747Z" fill="white"/>
<path d="M328.849 347.076C330.328 346.767 331.648 345.942 332.575 344.75C333.501 343.558 333.974 342.075 333.908 340.566C333.905 340.505 333.878 340.447 333.832 340.405C333.787 340.363 333.728 340.34 333.666 340.341C333.605 340.342 333.546 340.367 333.502 340.411C333.459 340.455 333.434 340.513 333.433 340.575C333.497 341.979 333.057 343.361 332.191 344.469C331.326 345.578 330.093 346.341 328.715 346.62C328.415 346.681 328.551 347.136 328.849 347.076Z" fill="white"/>
<path d="M326.431 359.884C323.833 358.217 321.958 355.632 321.181 352.645C321.104 352.349 320.648 352.484 320.725 352.78C321.54 355.887 323.496 358.572 326.204 360.301C326.463 360.465 326.688 360.047 326.431 359.884H326.431Z" fill="white"/>
<path d="M324.627 333.905C324.08 334.144 323.482 334.243 322.887 334.194C322.292 334.144 321.719 333.948 321.219 333.622C320.963 333.454 320.737 333.873 320.992 334.039C321.546 334.396 322.179 334.612 322.837 334.668C323.494 334.724 324.155 334.619 324.761 334.361C324.821 334.341 324.87 334.3 324.9 334.245C324.93 334.19 324.938 334.126 324.922 334.066C324.904 334.005 324.863 333.955 324.808 333.925C324.752 333.895 324.688 333.888 324.627 333.905H324.627Z" fill="white"/>
<path d="M296.88 347.052C296.587 347.571 296.17 348.01 295.665 348.329C295.16 348.648 294.584 348.836 293.989 348.877C293.683 348.897 293.755 349.367 294.058 349.347C294.716 349.298 295.352 349.09 295.91 348.739C296.469 348.388 296.933 347.906 297.262 347.334C297.298 347.283 297.312 347.22 297.303 347.159C297.294 347.097 297.261 347.041 297.213 347.002C297.162 346.965 297.099 346.949 297.036 346.959C296.974 346.968 296.918 347.001 296.88 347.052H296.88Z" fill="white"/>
<path d="M294.225 147.548C295.499 147.548 296.531 146.516 296.531 145.243C296.531 143.97 295.499 142.938 294.225 142.938C292.951 142.938 291.919 143.97 291.919 145.243C291.919 146.516 292.951 147.548 294.225 147.548Z" fill="#3F3D56"/>
<path d="M265.347 163.001L296.438 143.474C296.719 143.298 297.033 143.18 297.361 143.128C297.69 143.076 298.025 143.091 298.347 143.172C298.669 143.253 298.971 143.399 299.235 143.6C299.5 143.802 299.72 144.054 299.884 144.343C300.048 144.632 300.151 144.951 300.188 145.281C300.225 145.611 300.195 145.945 300.099 146.263C300.003 146.581 299.844 146.876 299.631 147.131C299.418 147.386 299.155 147.595 298.859 147.745L266.127 164.378C265.946 164.47 265.735 164.489 265.54 164.43C265.345 164.371 265.18 164.24 265.079 164.062C264.979 163.885 264.951 163.676 265 163.478C265.05 163.28 265.174 163.11 265.347 163.001V163.001Z" fill="#E4E4E4"/>
<path d="M202.972 205.047C202.727 204.683 202.599 204.253 202.606 203.815C202.612 203.376 202.752 202.95 203.007 202.593C203.534 201.889 204.234 201.333 205.04 200.982C206.704 200.135 208.496 199.569 210.344 199.306C211.748 199.107 213.281 199.043 214.37 198.135C215.452 197.233 216.056 195.546 217.458 195.405C218.814 195.269 219.856 196.752 221.215 196.844C222.89 196.958 223.987 194.998 225.618 194.596C226.709 194.326 227.831 194.801 228.855 195.266L234.998 198.052L238.147 199.48C239.247 199.979 240.487 200.65 240.695 201.84C240.98 203.474 239.162 204.627 237.608 205.207C226.507 209.303 214.309 209.304 203.207 205.212" fill="#6C63FF"/>
<path d="M212.227 235.155C256.806 235.155 292.944 229.994 292.944 223.628C292.944 217.262 256.806 212.101 212.227 212.101C167.648 212.101 131.51 217.262 131.51 223.628C131.51 229.994 167.648 235.155 212.227 235.155Z" fill="#3F3D56"/>
<path d="M375.967 295.097H320.618C318.071 295.097 316.006 297.161 316.006 299.708C316.006 302.254 318.071 304.319 320.618 304.319H375.967C378.514 304.319 380.579 302.254 380.579 299.708C380.579 297.161 378.514 295.097 375.967 295.097Z" fill="#3F3D56"/>
<path d="M402.79 212.89L384.51 299.703L389.271 321.922L398.26 363.856V382.704C398.261 382.73 398.259 382.755 398.255 382.781C398.252 383.197 398.175 383.61 398.029 384H390.803C390.657 383.61 390.581 383.197 390.578 382.781C390.574 382.755 390.572 382.73 390.573 382.704V364.665L382.414 326.605L380.764 318.92L377.571 304.027L376.648 299.713V299.708L377.561 295.384L378.263 292.049L395.267 211.312C395.37 210.818 395.57 210.349 395.855 209.932C396.139 209.515 396.503 209.158 396.926 208.882C397.349 208.605 397.822 208.415 398.318 208.321C398.815 208.228 399.324 208.233 399.819 208.337C400.313 208.441 400.782 208.641 401.199 208.926C401.616 209.211 401.972 209.575 402.248 209.998C402.524 210.421 402.714 210.894 402.807 211.39C402.9 211.886 402.894 212.396 402.79 212.89L402.79 212.89Z" fill="#3F3D56"/>
<path d="M324.462 299.708V382.704C324.463 382.73 324.461 382.755 324.457 382.781C324.454 383.197 324.377 383.61 324.231 384H317.005C316.859 383.61 316.783 383.197 316.78 382.781C316.775 382.755 316.774 382.73 316.774 382.704V299.708C316.774 298.689 317.179 297.711 317.9 296.991C318.621 296.27 319.599 295.865 320.618 295.865C321.638 295.865 322.615 296.27 323.336 296.991C324.057 297.711 324.462 298.689 324.462 299.708Z" fill="#3F3D56"/>
<path d="M329.843 285.875H366.742C370.412 285.875 373.932 287.333 376.526 289.927C379.121 292.521 380.579 296.039 380.579 299.708H316.006C316.006 296.039 317.464 292.521 320.059 289.927C322.654 287.333 326.173 285.875 329.843 285.875Z" fill="#3F3D56"/>
<path d="M385.192 326.605H320.618C319.599 326.605 318.621 326.2 317.9 325.479C317.179 324.759 316.775 323.781 316.775 322.762C316.775 321.743 317.179 320.766 317.9 320.045C318.621 319.325 319.599 318.92 320.618 318.92H385.192C386.211 318.92 387.189 319.325 387.91 320.045C388.63 320.766 389.035 321.743 389.035 322.762C389.035 323.781 388.63 324.759 387.91 325.479C387.189 326.2 386.211 326.605 385.192 326.605Z" fill="#3F3D56"/>
<path d="M84.8274 304.458H149.96C152.507 304.458 154.572 302.394 154.572 299.848V298.45C154.572 295.904 152.507 293.839 149.96 293.839H84.8274C82.28 293.839 80.215 295.904 80.215 298.45V299.848C80.215 302.394 82.28 304.458 84.8274 304.458Z" fill="#3F3D56"/>
<path d="M84.1565 299.211L82.9776 304.068L78.6523 321.855L76.787 329.54L68.1258 365.187V380.654C68.128 381.412 67.9032 382.152 67.4801 382.781C67.1476 383.289 66.6953 383.707 66.1631 384H62.4013C61.8691 383.707 61.4169 383.289 61.0843 382.781C60.6612 382.152 60.4363 381.412 60.4384 380.654V364.265L70.0631 324.663L76.2745 299.088L55.2112 199.057C55.107 198.563 55.1011 198.054 55.1939 197.558C55.2867 197.062 55.4765 196.589 55.7522 196.167C56.0279 195.744 56.3843 195.38 56.8009 195.095C57.2175 194.81 57.6862 194.61 58.1802 194.506C58.6742 194.403 59.1838 194.397 59.6799 194.491C60.1759 194.584 60.6487 194.774 61.0712 195.05C61.4937 195.326 61.8576 195.683 62.1421 196.1C62.4266 196.516 62.6262 196.985 62.7294 197.479L82.1989 289.917L83.0958 294.18L84.141 299.149L84.1565 299.211Z" fill="#3F3D56"/>
<path d="M153.107 299.149V380.654C153.109 381.412 152.884 382.152 152.461 382.781C152.128 383.289 151.676 383.707 151.144 384H147.377C146.847 383.706 146.397 383.287 146.065 382.781C145.642 382.152 145.417 381.412 145.419 380.654V299.149C145.419 298.13 145.824 297.153 146.545 296.432C147.266 295.712 148.243 295.307 149.263 295.307C150.282 295.307 151.26 295.712 151.981 296.432C152.702 297.153 153.107 298.13 153.107 299.149Z" fill="#3F3D56"/>
<path d="M154.572 299.149H80.2149V297.053C80.2149 295.237 80.5728 293.438 81.2682 291.76C81.9636 290.081 82.9828 288.556 84.2677 287.272C85.5526 285.987 87.078 284.968 88.7568 284.273C90.4356 283.578 92.235 283.22 94.0521 283.22H140.735C144.405 283.22 147.924 284.678 150.519 287.272C153.114 289.866 154.572 293.384 154.572 297.053V299.149H154.572Z" fill="#3F3D56"/>
<path d="M149.261 329.539H74.9037C73.8843 329.539 72.9067 329.134 72.1858 328.413C71.465 327.693 71.0601 326.715 71.0601 325.696C71.0601 324.677 71.465 323.7 72.1858 322.979C72.9067 322.259 73.8843 321.854 74.9037 321.854H149.261C150.28 321.854 151.258 322.259 151.979 322.979C152.7 323.7 153.105 324.677 153.105 325.696C153.105 326.715 152.7 327.693 151.979 328.413C151.258 329.134 150.28 329.539 149.261 329.539Z" fill="#3F3D56"/>
<path d="M244.822 363.057L236.744 359.194L247.841 325.438L259.764 331.138L244.822 363.057Z" fill="#9E616A"/>
<path d="M299.571 359.999L290.884 362.142L278.298 328.919L291.119 325.757L299.571 359.999Z" fill="#9E616A"/>
<path d="M266.276 216.336C267.428 218.207 269.266 219.553 271.398 220.088C273.529 220.623 275.785 220.303 277.685 219.198C278.067 218.967 278.429 218.704 278.767 218.413L304.308 233.066L303.198 218.025L279.115 206.417C277.804 205.101 276.094 204.257 274.252 204.017C272.41 203.777 270.541 204.155 268.937 205.091C268.014 205.646 267.21 206.379 266.575 207.248C265.939 208.118 265.484 209.105 265.236 210.153C264.988 211.201 264.952 212.288 265.131 213.35C265.309 214.412 265.699 215.427 266.276 216.336Z" fill="#9E616A"/>
<path d="M293.327 227.548L297.842 230.299L318.118 242.659C319.45 243.492 320.933 244.054 322.482 244.314C324.032 244.574 325.617 244.526 327.148 244.172C328.679 243.819 330.125 243.168 331.404 242.256C332.682 241.343 333.769 240.188 334.601 238.856C336.102 236.383 336.633 233.442 336.092 230.601L327.08 185.592C326.747 183.825 326.036 182.151 324.997 180.684C323.957 179.217 322.612 177.991 321.055 177.092C319.498 176.192 317.765 175.639 315.975 175.47C314.184 175.301 312.378 175.521 310.68 176.115C307.827 177.117 305.462 179.169 304.068 181.852C302.674 184.536 302.355 187.649 303.175 190.56L312.599 222.502L298.154 215.769L293.327 227.548Z" fill="#E6E6E6"/>
<path d="M282.653 350.689L268.752 322.819L268.754 322.756L270.126 271.638C270.143 271.183 270.18 270.727 270.236 270.277C270.478 268.228 271.126 266.247 272.142 264.45C273.158 262.654 274.522 261.077 276.154 259.813C277.717 258.59 279.508 257.691 281.422 257.168C283.336 256.645 285.335 256.508 287.302 256.765L327.051 261.907L328.429 256.272L328.686 256.179L366.771 242.226L366.991 242.583C371.979 250.696 375.466 266.903 376.416 271.676L376.429 271.745C376.449 271.846 376.461 271.907 376.465 271.924C378.426 280.071 370.325 293.566 362.255 295.594C345.255 299.925 330.052 296.547 312.448 292.634C306.136 291.23 299.612 289.78 292.426 288.526L292.639 292.754C292.814 296.008 293.491 299.215 294.644 302.263C295.926 306.015 296.938 308.978 294.797 315.156L293.762 318.145C294.299 319.628 294.484 321.216 294.302 322.784C294.12 324.351 293.577 325.855 292.714 327.176L292.506 327.494L301.673 350.684L282.653 350.689Z" fill="#2F2E41"/>
<path d="M259.813 338.364L243.237 336.824L249.11 318.049C250.322 305.79 253.375 293.783 258.168 282.434L266.178 263.456C266.196 263.034 266.232 262.609 266.284 262.193C266.526 260.143 267.174 258.162 268.19 256.366C269.206 254.569 270.57 252.993 272.202 251.728C273.765 250.506 275.556 249.608 277.47 249.084C279.384 248.561 281.383 248.424 283.35 248.681L323.04 253.815L324.769 239.311L362.864 234.215L363.039 234.499C369.697 245.329 373.925 253.808 376.342 261.182C376.464 261.558 376.572 261.942 376.664 262.324C378.638 270.525 373.71 278.84 365.679 280.859C345.213 286.075 320.602 285.931 288.244 280.401L272.584 317.657C271.087 321.215 269.234 324.613 267.053 327.799L259.813 338.364Z" fill="#2F2E41"/>
<path d="M317.634 150.284C328.239 150.284 336.836 141.498 336.836 130.661C336.836 119.823 328.239 111.038 317.634 111.038C307.03 111.038 298.433 119.823 298.433 130.661C298.433 141.498 307.03 150.284 317.634 150.284Z" fill="#9E616A"/>
<path d="M323.179 254.5L320.424 244.633L319.746 239.766L315.786 239.898L308.014 221.965L304.996 217.237C304.38 216.589 303.823 215.966 303.323 215.368C300.178 211.814 297.656 207.754 295.863 203.36C294.608 200.203 293.87 196.864 293.68 193.472C293.116 183.452 297.342 172.851 306.597 161.065C306.446 160.648 306.344 160.214 306.296 159.773C306.13 158.341 306.537 156.902 307.428 155.769C308.318 154.635 309.62 153.899 311.051 153.72L319.978 152.718C320.672 152.64 321.375 152.7 322.046 152.895C322.717 153.091 323.342 153.418 323.885 153.857C324.452 154.311 324.923 154.874 325.27 155.512C325.618 156.15 325.834 156.851 325.908 157.574C326.028 158.692 325.808 159.82 325.277 160.812C329.827 161.389 334.114 163.267 337.624 166.219C341.134 169.171 343.717 173.073 345.064 177.456C350.406 187.425 354.663 197.938 357.764 208.813C358.375 210.944 358.103 213.139 357.84 215.261C357.596 217.222 357.345 219.249 357.768 221.27C358.198 223.326 359.232 225.387 360.327 227.57C361.582 230.07 362.879 232.655 363.229 235.291L363.254 235.476L323.179 254.5Z" fill="#E4E4E4"/>
<path opacity="0.2" d="M296.101 203.263C297.885 207.631 300.393 211.668 303.519 215.203C304.055 215.842 304.62 216.47 305.212 217.099L308.25 221.863C319.447 213.473 328.518 180.438 328.518 180.438L315.885 177.981L296.101 203.263Z" fill="black"/>
<path d="M288.452 152.117C289.558 154.017 289.88 156.273 289.347 158.406C288.815 160.538 287.471 162.379 285.602 163.536C285.218 163.766 284.816 163.963 284.4 164.126L285.294 193.551L272.547 185.529L273.652 158.817C273.11 157.039 273.172 155.132 273.827 153.393C274.483 151.654 275.697 150.181 277.278 149.204C278.199 148.647 279.222 148.28 280.288 148.125C281.353 147.97 282.439 148.03 283.48 148.302C284.522 148.573 285.499 149.051 286.353 149.706C287.207 150.362 287.92 151.181 288.452 152.117Z" fill="#9E616A"/>
<path d="M286.414 182.444L272.397 184.437L273 213.455C273.034 215.525 273.598 217.552 274.638 219.343C275.677 221.134 277.157 222.63 278.937 223.687C281.112 224.967 283.644 225.505 286.151 225.22C288.659 224.935 291.006 223.844 292.838 222.11L325.932 190.288C328.261 188.08 329.654 185.064 329.826 181.86C329.998 178.656 328.936 175.508 326.857 173.064C325.828 171.847 324.566 170.848 323.144 170.128C321.722 169.408 320.17 168.981 318.579 168.873C316.989 168.764 315.393 168.975 313.887 169.495C312.38 170.014 310.993 170.831 309.808 171.897C309.481 172.189 309.17 172.499 308.876 172.825L287.024 197.955L286.414 182.444Z" fill="#E6E6E6"/>
<path d="M169.174 371.724L179.124 371.723L183.857 333.359L169.173 333.359L169.174 371.724Z" fill="#FFB6B6"/>
<path d="M112.778 150.853C123.746 150.853 132.637 141.966 132.637 131.002C132.637 120.038 123.746 111.15 112.778 111.15C101.811 111.15 92.9204 120.038 92.9204 131.002C92.9204 141.966 101.811 150.853 112.778 150.853Z" fill="#FFB6B6"/>
<path d="M182.371 359.905H168.281L164.689 355.092L163.717 350.557L162.88 349.748C161.745 348.658 161.011 347.218 160.797 345.659C160.584 344.101 160.903 342.516 161.703 341.161L151.492 293.535C148.817 293.3 118.657 290.604 97.6914 286.895C92.3259 285.946 88.1367 283.338 85.2402 279.146C78.123 268.842 81.1718 252.171 81.2034 252.004L81.2385 251.818L81.4266 251.797L130.397 246.302L130.463 246.334C132.088 247.103 170.335 265.255 176.586 271.503C179.408 274.324 185.705 291.088 187.114 308.909C187.367 312.102 186.458 315.353 185.579 318.498C184.757 321.44 183.907 324.482 184.075 327.358C184.334 331.796 184.58 336.45 184.805 341.193C184.841 341.949 185.411 342.731 185.961 343.488C186.537 344.278 187.08 345.024 187.115 345.805C187.45 353.379 182.498 359.745 182.448 359.808L182.371 359.905Z" fill="#2F2E41"/>
<path d="M185.579 183.877C184.512 183.585 183.395 183.531 182.305 183.718C181.215 183.905 180.179 184.329 179.27 184.959C178.362 185.589 177.603 186.411 177.046 187.367C176.49 188.322 176.15 189.388 176.05 190.489L159.551 195.644L160.239 206.432L183.437 198.825C185.299 198.87 187.112 198.23 188.533 197.028C189.955 195.826 190.886 194.144 191.15 192.302C191.414 190.459 190.993 188.584 189.966 187.031C188.939 185.478 187.378 184.356 185.579 183.877V183.877Z" fill="#FFB6B6"/>
<path d="M174.814 201.728L162.482 206.394L162.167 207.005C161.411 208.471 160.103 209.577 158.531 210.08C156.96 210.582 155.253 210.44 153.786 209.684L126.068 220.171C126.068 220.171 113.69 207.788 104.878 196.737L107.881 178.269C108.577 173.984 110.055 169.864 112.243 166.114C130.316 170.076 140.691 195.333 140.691 195.333L173.264 189.119L174.814 201.728Z" fill="#6C63FF"/>
<path d="M109.957 149.792C104.985 151.135 99.5043 149.35 95.6245 145.965C91.7448 142.58 89.3179 137.784 87.9195 132.829C86.8953 129.201 86.4097 125.173 88.0259 121.766C89.642 118.36 93.9917 116.061 97.3474 117.782C95.2773 115.371 96.3115 111.383 98.7292 109.321C101.147 107.258 104.467 106.667 107.629 106.343C112.218 105.874 116.958 105.822 121.325 107.308C125.691 108.794 129.659 112.043 131.025 116.448C132.421 117.097 133.993 117.266 135.495 116.927C136.997 116.588 138.344 115.761 139.325 114.574C139.578 115.937 139.375 117.344 138.747 118.58C138.119 119.815 137.101 120.809 135.852 121.408L142.542 119.239C143.693 121.674 141.677 124.687 139.098 125.467C136.52 126.247 133.737 125.395 131.29 124.268C128.844 123.142 126.472 121.718 123.815 121.278C121.157 120.839 118.036 121.693 116.806 124.089C116.162 125.344 116.129 126.813 115.755 128.173C115.381 129.533 114.434 130.943 113.028 131.055C112.139 131.125 111.269 130.652 110.383 130.748C109.285 130.868 108.444 131.863 108.151 132.929C107.931 134.014 107.928 135.133 108.143 136.219L109.843 149.206" fill="#2F2E41"/>
<path d="M85.3544 281.518C85.3507 281.518 85.3469 281.517 85.3432 281.517L85.1862 281.49L85.1408 281.337C84.5699 279.418 83.8434 277.453 83.1408 275.552C82.106 272.92 81.2323 270.228 80.5245 267.49C79.9675 264.872 79.5812 262.221 79.3682 259.554C79.1722 257.617 78.9696 255.614 78.6249 253.643C78.4719 252.768 79.0518 251.939 79.6127 251.137C80.1327 250.394 80.6239 249.691 80.5208 249.027C80.4154 248.348 79.6619 247.602 78.9333 246.881C78.1346 246.09 77.3087 245.272 77.1917 244.412C75.5999 232.669 74.859 220.827 74.9747 208.978C75.1393 192.583 75.8804 181.408 77.1775 175.763C80.6654 160.585 96.7796 157.815 99.3019 157.473C99.5705 156.758 99.9836 156.105 100.515 155.556C101.047 155.007 101.686 154.574 102.393 154.283C103.099 153.991 103.858 153.848 104.622 153.863C105.387 153.878 106.14 154.049 106.835 154.367L118.284 159.607C120.606 160.673 122.685 162.206 124.39 164.11C126.094 166.013 127.39 168.247 128.194 170.672L129.895 175.855L130.747 210.652L126.026 235.155L135.251 248.988C86.0859 275.972 85.5128 281.518 85.3544 281.518Z" fill="#6C63FF"/>
<path d="M163.82 367.858L167.055 367.858L179.685 362.723L186.454 367.857H186.455C190.28 367.857 193.949 369.376 196.654 372.08C199.359 374.784 200.878 378.452 200.879 382.276V382.744L163.821 382.746L163.82 367.858Z" fill="#2F2E41"/>
<path d="M189.71 208.708C188.757 208.148 187.692 207.804 186.591 207.7C185.49 207.597 184.379 207.735 183.338 208.107C182.296 208.479 181.349 209.074 180.562 209.852C179.776 210.629 179.169 211.569 178.786 212.606L161.512 213.279L159.185 221.323L183.742 222.579C185.527 223.108 187.444 222.964 189.13 222.174C190.816 221.384 192.154 220.004 192.889 218.294C193.625 216.584 193.708 214.664 193.122 212.897C192.536 211.13 191.322 209.639 189.71 208.708Z" fill="#FFB6B6"/>
<path d="M175.521 223.447L157.778 223.226L155.532 223.195L119.432 222.741C119.432 222.741 109.628 213.391 101.092 203.765L102.288 195.114C103.456 186.624 107.669 178.847 114.144 173.23C126.369 181.397 133.46 197.562 133.46 197.562L145.347 202.879C153.714 203.253 161.866 205.64 169.112 209.837L173.022 212.101L175.521 223.447Z" fill="#6C63FF"/>
<path d="M305.909 376.363L300.005 377.82L297.576 372.508L296.252 378.746L280.594 382.609C279.843 382.794 279.053 382.734 278.339 382.439C277.625 382.143 277.023 381.627 276.623 380.966C276.223 380.305 276.045 379.533 276.114 378.763C276.184 377.994 276.498 377.267 277.01 376.688L287.383 364.97L285.993 359.337L299.339 356.876L305.909 376.363Z" fill="#2F2E41"/>
<path d="M243.364 378.185L237.734 375.887L238.899 370.164L234.156 374.427L219.223 368.334C218.508 368.042 217.904 367.529 217.501 366.87C217.097 366.21 216.915 365.439 216.981 364.669C217.047 363.899 217.357 363.171 217.867 362.589C218.376 362.008 219.059 361.605 219.814 361.439L235.099 358.072L237.293 352.7L249.53 358.566L243.364 378.185Z" fill="#2F2E41"/>
<path d="M223.758 221.579H219.146C214.186 221.573 209.432 219.601 205.925 216.096C202.418 212.59 200.445 207.837 200.44 202.879V202.623H242.464V202.879C242.458 207.837 240.486 212.59 236.979 216.096C233.472 219.601 228.717 221.573 223.758 221.579Z" fill="#E4E4E4"/>
<path d="M219.146 195.963C219.146 197.236 216.839 198.268 216.839 198.268C216.839 198.268 214.533 197.236 214.533 195.963C214.533 194.689 216.839 193.657 216.839 193.657C216.839 193.657 219.146 194.689 219.146 195.963Z" fill="#3F3D56"/>
<path d="M232.983 195.963C232.983 197.236 230.677 198.268 230.677 198.268C230.677 198.268 228.37 197.236 228.37 195.963C228.37 194.689 230.677 193.657 230.677 193.657C230.677 193.657 232.983 194.689 232.983 195.963Z" fill="#3F3D56"/>
<path d="M223.758 200.574C223.758 201.847 221.452 202.879 221.452 202.879C221.452 202.879 219.146 201.847 219.146 200.574C219.146 199.3 221.452 198.268 221.452 198.268C221.452 198.268 223.758 199.3 223.758 200.574Z" fill="#3F3D56"/>
<path d="M207.615 191.096C208.888 191.096 209.921 190.064 209.921 188.79C209.921 187.517 208.888 186.485 207.615 186.485C206.341 186.485 205.308 187.517 205.308 188.79C205.308 190.064 206.341 191.096 207.615 191.096Z" fill="#3F3D56"/>
<path d="M174.075 183.836L210.447 188.858C210.776 188.903 211.093 189.015 211.377 189.186C211.662 189.357 211.909 189.584 212.104 189.853C212.298 190.122 212.436 190.428 212.509 190.752C212.582 191.076 212.588 191.411 212.528 191.738C212.468 192.064 212.342 192.375 212.158 192.652C211.974 192.928 211.736 193.165 211.458 193.347C211.181 193.529 210.869 193.653 210.542 193.711C210.215 193.769 209.879 193.76 209.556 193.685L173.787 185.392C173.589 185.346 173.415 185.225 173.304 185.055C173.192 184.884 173.15 184.677 173.187 184.477C173.224 184.276 173.337 184.098 173.502 183.978C173.668 183.859 173.873 183.808 174.075 183.836Z" fill="#E4E4E4"/>
<path d="M218.274 69.2724V0H213.661V69.2724C207.359 69.8472 201.5 72.7561 197.233 77.4278C192.966 82.0996 190.6 88.1971 190.599 94.5232V101.44H206.743C206.743 103.885 207.715 106.231 209.445 107.96C211.175 109.69 213.521 110.661 215.968 110.661C218.414 110.661 220.76 109.69 222.49 107.96C224.22 106.231 225.192 103.885 225.192 101.44H241.336V94.5232C241.335 88.1971 238.969 82.0997 234.702 77.4279C230.435 72.7561 224.576 69.8472 218.274 69.2724Z" fill="#C0C0C0"/>
<path d="M277.658 51.9543V0H274.199V51.9543C269.472 52.3854 265.078 54.567 261.878 58.0709C258.678 61.5747 256.903 66.1478 256.902 70.8924V76.0797H269.01C269.01 77.914 269.739 79.6732 271.036 80.9703C272.334 82.2673 274.094 82.996 275.929 82.996C277.763 82.996 279.523 82.2673 280.821 80.9703C282.118 79.6732 282.847 77.914 282.847 76.0797H294.955V70.8924C294.954 66.1478 293.18 61.5748 289.979 58.0709C286.779 54.567 282.385 52.3854 277.658 51.9543Z" fill="#C0C0C0"/>
<path d="M160.811 51.9543V0H157.352V51.9543C152.625 52.3854 148.231 54.567 145.03 58.0709C141.83 61.5747 140.056 66.1478 140.055 70.8924V76.0797H152.163C152.163 77.914 152.892 79.6732 154.189 80.9703C155.487 82.2673 157.246 82.996 159.081 82.996C160.916 82.996 162.676 82.2673 163.973 80.9703C165.271 79.6732 166 77.914 166 76.0797H178.107V70.8924C178.107 66.1478 176.332 61.5748 173.132 58.0709C169.932 54.567 165.537 52.3854 160.811 51.9543Z" fill="#C0C0C0"/>
<path d="M369.016 122.15C365.752 118.345 364.2 113.297 361.591 108.976C358.982 104.656 354.441 100.789 349.645 101.794C346.338 102.487 343.782 105.404 342.489 108.656C341.195 111.908 340.953 115.494 340.726 119.008C340.806 111.788 336.048 104.788 329.493 102.485C322.939 100.181 315.095 102.751 310.976 108.551C309.179 106.886 306.833 105.937 304.382 105.886C301.932 105.835 299.548 106.684 297.683 108.272C293.999 111.564 293.184 117.829 295.893 122.027C298.602 126.225 304.47 127.79 308.775 125.461L310.298 126.861C309.441 129.857 311.102 133.395 313.896 134.523C316.16 135.438 319.358 135.285 320.206 137.661C320.798 139.322 319.691 141.094 318.513 142.37C317.336 143.645 315.938 144.963 315.796 146.728C315.583 149.392 318.336 151.258 320.839 151.82C326.875 153.175 333.572 150.381 337.051 145.056C337.118 144.954 337.191 144.851 337.27 144.748C339.222 142.253 340.644 139.386 341.45 136.323C342.256 133.259 342.429 130.064 341.958 126.932C341.762 125.701 341.959 124.786 342.808 124.494C346.477 123.234 356.756 125.878 359.866 128.268C362.977 130.658 365.469 133.82 368.465 136.364C371.462 138.908 375.28 140.87 379.085 140.177C382.132 139.623 384.724 137.411 386.468 134.744C388.211 132.076 389.214 128.967 390.113 125.877C383.375 129.768 374.153 128.139 369.016 122.15Z" fill="#2F2E41"/>
<line y1="382.5" x2="458" y2="382.5" stroke="#3F3D56" stroke-opacity="0.5"/>
</svg>
