<svg width="35" height="35" viewBox="0 0 35 35" fill="none" xmlns="http://www.w3.org/2000/svg">
<path d="M17.5 1.09375C11.4696 1.09375 6.5625 5.40805 6.5625 10.7111C6.5625 13.5166 8.40438 16.4052 10.1834 19.1964C11.7163 21.5988 13.1802 23.8919 13.6374 26.25H21.362C21.8203 23.8913 23.2827 21.5983 24.815 19.1964C26.5951 16.4052 28.4375 13.5166 28.4375 10.7111C28.4375 5.40805 23.5304 1.09375 17.5 1.09375ZM17.5 16.228C18.5566 17.3682 19.5519 17.7073 20.0069 17.8079C19.9385 18.1114 19.8767 18.4078 19.8051 18.6998C19.6705 19.297 19.5393 19.8789 19.4119 20.4378C19.0568 22.0087 18.7114 23.5817 18.3755 25.1568H16.6239C16.2873 23.5819 15.9418 22.0089 15.5876 20.4378L15.1933 18.6998C15.1216 18.4078 15.0598 18.1114 14.9926 17.8079C15.4481 17.7073 16.4434 17.3682 17.5 16.228V16.228ZM17.2052 15.0341C17.1008 14.8083 17.063 14.5775 17.1702 14.4074C17.2599 14.2723 17.3786 14.1952 17.5005 14.1952C17.6225 14.1952 17.7401 14.2723 17.8309 14.4074C17.9375 14.5775 17.9003 14.8077 17.7959 15.0341C17.7188 15.1938 17.6132 15.3459 17.5 15.493C17.3856 15.351 17.2868 15.1972 17.2052 15.0341V15.0341ZM23.8935 18.6074C22.4809 20.8217 21.1378 22.9266 20.5012 25.1562H18.7261C19.1197 23.6153 19.5049 22.0721 19.8816 20.527C20.0162 19.9686 20.1584 19.3905 20.3033 18.7945C20.3842 18.4773 20.4559 18.1502 20.5352 17.8248C20.9486 17.797 21.344 17.6679 21.6524 17.3852C21.9685 17.074 22.1331 16.6671 22.0593 16.2329C22.0259 16.0251 21.8701 15.756 21.5693 15.6641C21.4222 15.6145 21.2635 15.6109 21.1143 15.6538C20.9901 15.6998 20.8781 15.7739 20.7873 15.8703C20.4958 16.1941 20.3897 16.5173 20.2705 16.8377C20.2147 16.9991 20.1687 17.1604 20.125 17.3195C20.125 17.3195 19.6602 17.3551 18.6659 16.6862C18.1136 16.3149 17.9545 16.0464 17.7942 15.8687C17.967 15.6767 18.1327 15.4662 18.2612 15.2108C18.3296 15.068 18.387 14.9133 18.4067 14.7394C18.4264 14.5655 18.3941 14.3686 18.2946 14.1991C18.1884 14.0111 18.0216 13.8646 17.8216 13.7834C17.722 13.7479 17.611 13.7309 17.5 13.7309C17.389 13.7309 17.2769 13.7473 17.1784 13.7834C16.9782 13.8647 16.8111 14.0112 16.7043 14.1991C16.6048 14.3691 16.573 14.5655 16.5922 14.7394C16.6142 14.9036 16.6638 15.063 16.7387 15.2108C16.8667 15.4662 17.0324 15.6773 17.2058 15.8687C17.0455 16.0464 16.8853 16.3149 16.333 16.6862C15.3387 17.3556 14.8739 17.3195 14.8739 17.3195C14.831 17.1574 14.7829 16.9967 14.7295 16.8377C14.6087 16.5173 14.5042 16.1941 14.2127 15.8703C14.122 15.7738 14.01 15.6996 13.8857 15.6538C13.7365 15.6109 13.5778 15.6145 13.4307 15.6641C13.1283 15.756 12.9735 16.0251 12.9407 16.2329C12.8658 16.6671 13.0315 17.074 13.3476 17.3852C13.6571 17.6679 14.0514 17.797 14.4648 17.8248C14.543 18.1508 14.6141 18.4773 14.6967 18.7945L15.1184 20.527C15.4955 22.0721 15.8807 23.6152 16.2739 25.1562H14.4987C13.8633 22.9288 12.5196 20.8239 11.1032 18.6052C9.40844 15.9458 7.65625 13.1961 7.65625 10.7111C7.65625 6.01125 12.0717 2.1875 17.5 2.1875C22.9277 2.1875 27.3438 6.01125 27.3438 10.7111C27.3438 13.1972 25.5899 15.9474 23.8935 18.6074V18.6074ZM20.6713 17.3162C20.7036 17.2041 20.7364 17.0904 20.7747 16.981C20.878 16.6928 21.0098 16.3795 21.1892 16.1919C21.2319 16.1437 21.2756 16.1246 21.298 16.112C21.298 16.1142 21.3516 16.1055 21.3855 16.1224C21.4462 16.1377 21.5042 16.2006 21.5266 16.3215C21.5704 16.5555 21.4594 16.8569 21.2587 17.0455C21.1176 17.1795 20.8999 17.2736 20.6713 17.3162ZM14.3276 17.3162C14.099 17.2736 13.8813 17.1795 13.7413 17.045C13.5395 16.8563 13.4296 16.555 13.4734 16.3209C13.4958 16.1995 13.5532 16.1372 13.6145 16.1219C13.6489 16.1055 13.702 16.1137 13.702 16.1115C13.7233 16.1241 13.7681 16.1438 13.8086 16.1913C13.9891 16.3795 14.1203 16.6923 14.2242 16.9805C14.2625 17.0904 14.2959 17.2041 14.3276 17.3162V17.3162ZM14.5031 27.1015H13.9563V29.0702H14.3763V30.8208H14.7962V32.5713H15.4995C15.8304 33.3528 16.596 33.9062 17.5 33.9062C18.4034 33.9062 19.1685 33.3528 19.5005 32.5702H20.2262V30.8087L20.2874 30.7863L20.6456 30.6551V29.0566L20.6812 29.0451L21.0645 28.9248V27.1009H14.5031V27.1015Z" fill="#3900F5"/>
</svg>
