<svg width="509" height="427" viewBox="0 0 509 427" fill="none" xmlns="http://www.w3.org/2000/svg">
<path d="M331.343 422.225L235.993 250.271C235.966 249.851 235.836 249.443 235.614 249.085C235.392 248.726 235.085 248.428 234.72 248.216C234.302 247.977 233.824 247.861 233.343 247.883C233.327 247.882 233.312 247.883 233.296 247.882C233.281 247.883 233.265 247.882 233.25 247.883C232.598 247.853 231.959 248.076 231.467 248.505C230.975 248.935 230.668 249.539 230.611 250.189L129.554 422.225C129.385 422.517 129.276 422.839 129.232 423.173C129.187 423.507 129.21 423.846 129.297 424.171C129.384 424.496 129.534 424.801 129.739 425.069C129.944 425.336 130.199 425.56 130.491 425.728C130.782 425.897 131.104 426.006 131.438 426.05C131.772 426.094 132.111 426.072 132.436 425.984C132.762 425.897 133.066 425.747 133.333 425.542C133.6 425.336 133.824 425.081 133.993 424.789L233.228 255.855L326.904 424.789C327.073 425.081 327.297 425.336 327.564 425.542C327.831 425.747 328.135 425.897 328.461 425.984C328.786 426.072 329.125 426.094 329.459 426.05C329.793 426.006 330.115 425.897 330.406 425.728C330.698 425.56 330.953 425.336 331.158 425.069C331.363 424.801 331.513 424.496 331.6 424.171C331.687 423.846 331.71 423.507 331.665 423.173C331.621 422.839 331.512 422.517 331.343 422.225Z" fill="#3F3D56"/>
<path d="M217.497 392.723L228.274 390.249L223.865 347.492L207.959 351.142L217.497 392.723Z" fill="#FFB6B6"/>
<path d="M225.829 372.067L210.491 375.587L205.587 366L205.31 365.661C203.134 362.99 201.927 359.661 201.884 356.216L189.136 322.486L188.093 321.991C187.287 321.607 186.571 321.056 185.995 320.374C185.419 319.691 184.994 318.894 184.751 318.035C184.507 317.176 184.449 316.274 184.581 315.391C184.713 314.507 185.032 313.662 185.517 312.912L184.167 309.342L146.086 309.412L146.048 309.401L99.2842 296.28L104.194 267.003L117.349 275.28C121.683 274.998 195.936 270.438 202.796 287.083C208.904 301.905 217.707 327.227 224.015 345.86C224.33 346.696 224.721 347.502 225.184 348.267C226.165 349.779 226.741 351.518 226.856 353.317C226.931 354.1 227.08 354.873 227.302 355.628C229.924 363.468 225.929 371.861 225.889 371.945L225.829 372.067Z" fill="#2F2E41"/>
<path d="M213.856 389.148L217.36 388.344L229.764 379.64L238.373 383.521L238.374 383.521C242.517 382.57 246.869 383.305 250.471 385.564C254.073 387.822 256.631 391.419 257.582 395.564L257.698 396.072L217.557 405.284L213.856 389.148Z" fill="#2F2E41"/>
<path d="M63.3048 385.941C61.6618 385.597 60.1943 384.681 59.1645 383.355C58.1346 382.029 57.6095 380.38 57.6829 378.703C57.6865 378.634 57.7166 378.57 57.7666 378.524C57.8167 378.477 57.883 378.451 57.9514 378.453C58.0199 378.454 58.0852 378.482 58.1336 378.53C58.182 378.578 58.2097 378.644 58.2109 378.712C58.1396 380.274 58.6289 381.81 59.5904 383.043C60.5519 384.275 61.9223 385.124 63.4542 385.434C63.787 385.502 63.6358 386.008 63.3048 385.941H63.3048Z" fill="white"/>
<path d="M65.9918 400.183C68.8799 398.33 70.9636 395.456 71.8274 392.134C71.9127 391.805 72.4189 391.955 72.3337 392.283C71.4284 395.738 69.2539 398.725 66.2443 400.647C65.9573 400.83 65.7064 400.365 65.9918 400.183H65.9918Z" fill="white"/>
<path d="M67.997 371.295C68.6051 371.561 69.2695 371.671 69.9306 371.616C70.5918 371.561 71.229 371.343 71.7849 370.981C72.0695 370.794 72.32 371.259 72.0374 371.445C71.4212 371.842 70.7173 372.082 69.9869 372.144C69.2566 372.207 68.5221 372.089 67.8477 371.802C67.7819 371.78 67.7268 371.734 67.6936 371.673C67.6605 371.612 67.6517 371.541 67.6692 371.474C67.6893 371.407 67.735 371.351 67.7964 371.317C67.8578 371.284 67.9299 371.276 67.997 371.295H67.997Z" fill="white"/>
<path d="M98.8335 385.914C99.1592 386.492 99.6234 386.98 100.184 387.335C100.745 387.689 101.385 387.898 102.047 387.944C102.387 387.967 102.307 388.489 101.97 388.466C101.239 388.412 100.532 388.18 99.9114 387.79C99.2908 387.4 98.7751 386.864 98.4094 386.229C98.3699 386.172 98.3536 386.102 98.3638 386.033C98.374 385.964 98.4099 385.902 98.4643 385.859C98.5206 385.818 98.591 385.8 98.6602 385.811C98.7293 385.821 98.7916 385.858 98.8335 385.914H98.8335Z" fill="white"/>
<path d="M354.64 362.224C361 369.831 364.803 379.248 365.507 389.139C365.697 391.266 365.55 393.409 365.072 395.49C364.541 397.502 363.481 399.335 362.003 400.799C360.651 402.191 359.108 403.459 358.118 405.156C357.625 406.032 357.322 407.003 357.23 408.004C357.138 409.005 357.258 410.015 357.583 410.966C358.332 413.358 359.895 415.339 361.491 417.222C363.263 419.314 365.137 421.458 365.831 424.177C365.915 424.506 366.422 424.356 366.338 424.028C365.129 419.296 360.666 416.488 358.632 412.196C357.683 410.194 357.331 407.893 358.347 405.844C359.235 404.052 360.826 402.743 362.206 401.345C363.67 399.938 364.767 398.195 365.401 396.266C365.983 394.216 366.212 392.082 366.079 389.956C365.854 385.163 364.877 380.435 363.185 375.946C361.281 370.811 358.513 366.041 355.001 361.84C354.784 361.58 354.424 361.966 354.64 362.224L354.64 362.224Z" fill="white"/>
<path d="M365.468 385.941C367.111 385.597 368.578 384.681 369.608 383.355C370.638 382.029 371.163 380.38 371.09 378.703C371.086 378.635 371.056 378.57 371.006 378.524C370.956 378.477 370.89 378.451 370.821 378.453C370.753 378.454 370.687 378.482 370.639 378.53C370.591 378.579 370.563 378.644 370.562 378.712C370.633 380.274 370.144 381.81 369.182 383.043C368.221 384.275 366.85 385.124 365.318 385.435C364.986 385.502 365.137 386.008 365.468 385.941V385.941Z" fill="white"/>
<path d="M362.781 400.183C359.893 398.33 357.809 395.456 356.945 392.134C356.86 391.805 356.354 391.955 356.439 392.283C357.344 395.738 359.519 398.725 362.528 400.647C362.815 400.83 363.066 400.365 362.781 400.183H362.781Z" fill="white"/>
<path d="M360.775 371.295C360.167 371.561 359.503 371.671 358.842 371.616C358.181 371.561 357.544 371.343 356.988 370.981C356.703 370.794 356.452 371.259 356.735 371.445C357.351 371.842 358.055 372.082 358.786 372.144C359.516 372.207 360.25 372.089 360.925 371.802C360.991 371.78 361.046 371.734 361.079 371.673C361.112 371.612 361.121 371.541 361.103 371.474C361.083 371.407 361.037 371.351 360.976 371.317C360.915 371.284 360.843 371.276 360.775 371.295H360.775Z" fill="white"/>
<path d="M329.939 385.914C329.613 386.492 329.149 386.98 328.588 387.335C328.027 387.689 327.387 387.898 326.725 387.944C326.386 387.967 326.466 388.489 326.803 388.466C327.534 388.412 328.241 388.18 328.861 387.79C329.482 387.4 329.998 386.864 330.363 386.229C330.403 386.172 330.419 386.102 330.409 386.033C330.399 385.964 330.363 385.902 330.308 385.859C330.252 385.818 330.182 385.8 330.112 385.811C330.043 385.821 329.981 385.858 329.939 385.914H329.939Z" fill="white"/>
<path d="M326.988 164.071C328.404 164.071 329.551 162.923 329.551 161.507C329.551 160.091 328.404 158.944 326.988 158.944C325.573 158.944 324.425 160.091 324.425 161.507C324.425 162.923 325.573 164.071 326.988 164.071Z" fill="#3F3D56"/>
<path d="M294.894 181.254L329.447 159.54C329.76 159.344 330.109 159.213 330.474 159.155C330.838 159.097 331.211 159.114 331.569 159.205C331.927 159.295 332.263 159.457 332.556 159.681C332.85 159.904 333.095 160.185 333.277 160.507C333.459 160.828 333.574 161.183 333.615 161.55C333.657 161.917 333.623 162.288 333.516 162.642C333.41 162.995 333.233 163.323 332.996 163.607C332.759 163.89 332.468 164.122 332.138 164.29L295.762 182.785C295.56 182.887 295.326 182.908 295.109 182.843C294.892 182.777 294.709 182.631 294.597 182.434C294.485 182.237 294.454 182.004 294.509 181.784C294.565 181.564 294.702 181.374 294.894 181.254V181.254Z" fill="#E4E4E4"/>
<path d="M225.574 228.008C225.302 227.603 225.159 227.125 225.167 226.637C225.174 226.15 225.329 225.676 225.613 225.279C226.198 224.496 226.976 223.878 227.872 223.487C229.721 222.546 231.712 221.917 233.766 221.624C235.327 221.403 237.031 221.332 238.241 220.322C239.444 219.319 240.115 217.443 241.673 217.286C243.179 217.135 244.337 218.784 245.848 218.887C247.71 219.013 248.929 216.833 250.741 216.386C251.954 216.087 253.201 216.615 254.339 217.131L261.166 220.229L264.666 221.817C265.888 222.372 267.267 223.119 267.497 224.441C267.814 226.259 265.794 227.541 264.066 228.186C251.729 232.74 238.173 232.742 225.835 228.191" fill="#6C63FF"/>
<path d="M235.859 261.488C285.402 261.488 325.564 255.749 325.564 248.67C325.564 241.591 285.402 235.852 235.859 235.852C186.317 235.852 146.154 241.591 146.154 248.67C146.154 255.749 186.317 261.488 235.859 261.488Z" fill="#3F3D56"/>
<path d="M417.832 328.142H356.32C353.489 328.142 351.194 330.437 351.194 333.269C351.194 336.1 353.489 338.396 356.32 338.396H417.832C420.663 338.396 422.958 336.1 422.958 333.269C422.958 330.437 420.663 328.142 417.832 328.142Z" fill="#3F3D56"/>
<path d="M447.643 236.729L427.327 333.263L432.618 357.971L442.608 404.6V425.559C442.609 425.587 442.607 425.616 442.602 425.644C442.599 426.107 442.514 426.566 442.351 427H434.321C434.158 426.566 434.073 426.107 434.07 425.644C434.065 425.616 434.063 425.587 434.064 425.559V405.5L424.997 363.178L423.163 354.632L419.615 338.071L418.59 333.274V333.269L419.603 328.461L420.384 324.752L439.282 234.974C439.396 234.425 439.618 233.903 439.935 233.44C440.251 232.976 440.656 232.579 441.125 232.272C441.595 231.965 442.121 231.753 442.672 231.649C443.224 231.545 443.791 231.551 444.34 231.666C444.889 231.782 445.411 232.004 445.874 232.321C446.337 232.638 446.734 233.043 447.04 233.513C447.347 233.983 447.558 234.509 447.661 235.061C447.765 235.613 447.758 236.18 447.642 236.729L447.643 236.729Z" fill="#3F3D56"/>
<path d="M360.592 333.269V425.559C360.593 425.587 360.591 425.616 360.586 425.644C360.583 426.107 360.498 426.566 360.335 427H352.305C352.143 426.566 352.058 426.107 352.054 425.644C352.05 425.616 352.048 425.587 352.049 425.559V333.269C352.049 332.136 352.499 331.049 353.3 330.248C354.101 329.446 355.187 328.996 356.32 328.996C357.453 328.996 358.54 329.446 359.341 330.248C360.142 331.049 360.592 332.136 360.592 333.269Z" fill="#3F3D56"/>
<path d="M366.572 317.887H407.58C411.659 317.887 415.57 319.508 418.454 322.392C421.338 325.277 422.958 329.189 422.958 333.269V333.269H351.194C351.194 329.189 352.814 325.277 355.698 322.392C358.582 319.508 362.494 317.887 366.572 317.887V317.887Z" fill="#3F3D56"/>
<path d="M428.084 363.178H356.32C355.187 363.178 354.101 362.728 353.3 361.926C352.499 361.125 352.049 360.038 352.049 358.905C352.049 357.772 352.499 356.685 353.3 355.884C354.101 355.082 355.187 354.632 356.32 354.632H428.084C429.217 354.632 430.304 355.082 431.105 355.884C431.906 356.685 432.356 357.772 432.356 358.905C432.356 360.038 431.906 361.125 431.105 361.926C430.304 362.728 429.217 363.178 428.084 363.178Z" fill="#3F3D56"/>
<path d="M94.2732 338.551H166.658C169.489 338.551 171.784 336.256 171.784 333.424V331.87C171.784 329.039 169.489 326.743 166.658 326.743H94.2732C91.4422 326.743 89.1472 329.039 89.1472 331.87V333.424C89.1472 336.256 91.4422 338.551 94.2732 338.551Z" fill="#3F3D56"/>
<path d="M93.5276 332.716L92.2174 338.117L87.4104 357.896L85.3374 366.442L75.7117 406.081V423.28C75.7143 424.122 75.4643 424.945 74.9942 425.644C74.6246 426.209 74.122 426.675 73.5306 427H69.3498C68.7584 426.675 68.2558 426.209 67.8862 425.644C67.416 424.945 67.166 424.122 67.1684 423.28V405.055L77.8648 361.018L84.7679 332.579L61.3591 221.347C61.2433 220.798 61.2367 220.232 61.3399 219.68C61.4431 219.129 61.6539 218.603 61.9603 218.133C62.2668 217.663 62.6628 217.258 63.1258 216.941C63.5888 216.625 64.1097 216.402 64.6587 216.287C65.2077 216.172 65.7741 216.166 66.3254 216.269C66.8766 216.373 67.4021 216.585 67.8716 216.892C68.3411 217.199 68.7456 217.595 69.0618 218.059C69.378 218.522 69.5998 219.043 69.7144 219.593L91.352 322.382L92.3487 327.122L93.5103 332.648L93.5276 332.716Z" fill="#3F3D56"/>
<path d="M170.156 332.648V423.28C170.158 424.122 169.908 424.946 169.438 425.644C169.068 426.209 168.566 426.675 167.974 427H163.788C163.199 426.673 162.699 426.208 162.33 425.644C161.86 424.946 161.61 424.122 161.612 423.28V332.648C161.612 331.515 162.062 330.428 162.863 329.627C163.664 328.825 164.751 328.375 165.884 328.375C167.017 328.375 168.103 328.825 168.904 329.627C169.705 330.428 170.156 331.515 170.156 332.648Z" fill="#3F3D56"/>
<path d="M171.784 332.647H89.1471V330.317C89.1471 328.297 89.5449 326.297 90.3177 324.431C91.0905 322.564 92.2233 320.869 93.6512 319.44C95.0792 318.012 96.7745 316.879 98.6402 316.106C100.506 315.333 102.506 314.935 104.525 314.935H156.406C160.485 314.935 164.396 316.556 167.28 319.44C170.164 322.325 171.784 326.237 171.784 330.317V332.647H171.784Z" fill="#3F3D56"/>
<path d="M165.882 366.44H83.2444C82.1115 366.44 81.025 365.99 80.2239 365.189C79.4228 364.387 78.9728 363.301 78.9728 362.167C78.9728 361.034 79.4228 359.948 80.2239 359.146C81.025 358.345 82.1115 357.895 83.2444 357.895H165.882C167.015 357.895 168.101 358.345 168.902 359.146C169.703 359.948 170.153 361.034 170.153 362.167C170.153 363.301 169.703 364.387 168.902 365.189C168.101 365.99 167.015 366.44 165.882 366.44Z" fill="#3F3D56"/>
<path d="M272.084 403.712L263.106 399.417L275.439 361.88L288.69 368.219L272.084 403.712Z" fill="#9E616A"/>
<path d="M332.929 400.312L323.275 402.694L309.287 365.752L323.536 362.235L332.929 400.312Z" fill="#9E616A"/>
<path d="M295.927 240.561C297.207 242.642 299.25 244.139 301.619 244.733C303.988 245.328 306.495 244.972 308.606 243.743C309.03 243.486 309.433 243.194 309.809 242.871L338.194 259.164L336.961 242.439L310.195 229.531C308.739 228.068 306.838 227.129 304.791 226.862C302.744 226.596 300.667 227.016 298.884 228.057C297.858 228.674 296.965 229.489 296.259 230.456C295.552 231.422 295.047 232.521 294.771 233.686C294.495 234.851 294.456 236.06 294.654 237.24C294.853 238.421 295.285 239.55 295.927 240.561V240.561Z" fill="#9E616A"/>
<path d="M325.99 253.029L331.008 256.087L353.542 269.832C355.022 270.758 356.67 271.383 358.392 271.672C360.114 271.961 361.876 271.907 363.577 271.515C365.278 271.122 366.885 270.398 368.307 269.383C369.728 268.369 370.935 267.084 371.86 265.603C373.528 262.853 374.118 259.583 373.517 256.423L363.501 206.374C363.131 204.41 362.342 202.548 361.186 200.917C360.031 199.285 358.537 197.923 356.806 196.922C355.076 195.922 353.15 195.307 351.16 195.119C349.17 194.932 347.163 195.176 345.276 195.836C342.104 196.951 339.476 199.232 337.927 202.216C336.378 205.2 336.023 208.662 336.935 211.899L347.408 247.417L331.355 239.931L325.99 253.029Z" fill="#E6E6E6"/>
<path d="M314.127 389.959L298.679 358.968L298.681 358.897L300.206 302.056C300.225 301.55 300.266 301.042 300.327 300.543C300.597 298.264 301.317 296.061 302.446 294.063C303.576 292.065 305.091 290.312 306.905 288.906C308.642 287.547 310.632 286.547 312.759 285.965C314.886 285.383 317.108 285.231 319.295 285.517L363.469 291.235L365.001 284.969L365.287 284.865L407.613 269.35L407.857 269.747C413.4 278.769 417.275 296.79 418.331 302.098L418.346 302.175C418.368 302.287 418.382 302.354 418.386 302.374C420.565 311.433 411.562 326.439 402.593 328.694C383.701 333.51 366.805 329.753 347.24 325.402C340.225 323.842 332.975 322.229 324.988 320.834L325.226 325.536C325.42 329.154 326.172 332.721 327.454 336.11C328.878 340.282 330.003 343.577 327.624 350.447L326.474 353.77C327.071 355.42 327.276 357.186 327.074 358.929C326.872 360.672 326.268 362.344 325.309 363.813L325.078 364.167L335.266 389.953L314.127 389.959Z" fill="#2F2E41"/>
<path d="M288.745 376.254L270.322 374.541L276.849 353.664C278.196 340.032 281.589 326.681 286.915 314.06L295.818 292.958C295.838 292.488 295.878 292.016 295.935 291.553C296.205 289.273 296.925 287.071 298.054 285.073C299.183 283.075 300.699 281.322 302.513 279.916C304.25 278.558 306.24 277.558 308.367 276.977C310.494 276.395 312.716 276.242 314.902 276.528L359.012 282.237L360.933 266.109L403.27 260.442L403.464 260.757C410.864 272.801 415.563 282.229 418.249 290.429C418.384 290.847 418.504 291.274 418.606 291.699C420.8 300.818 415.324 310.064 406.399 312.309C383.654 318.11 356.302 317.949 320.341 311.8L302.937 353.228C301.274 357.185 299.214 360.963 296.79 364.505L288.745 376.254Z" fill="#2F2E41"/>
<path d="M353.004 167.112C364.79 167.112 374.344 157.343 374.344 145.292C374.344 133.241 364.79 123.471 353.004 123.471C341.219 123.471 331.664 133.241 331.664 145.292C331.664 157.343 341.219 167.112 353.004 167.112Z" fill="#9E616A"/>
<path d="M359.166 282.999L356.104 272.027L355.351 266.615L350.95 266.762L342.313 246.821L338.958 241.563C338.274 240.842 337.654 240.149 337.099 239.484C333.603 235.532 330.801 231.018 328.809 226.132C327.413 222.621 326.594 218.908 326.382 215.137C325.756 203.995 330.452 192.207 340.738 179.101C340.569 178.637 340.457 178.155 340.403 177.664C340.219 176.072 340.671 174.472 341.661 173.211C342.65 171.951 344.098 171.132 345.688 170.934L355.609 169.819C356.38 169.732 357.161 169.799 357.907 170.016C358.652 170.234 359.347 170.597 359.951 171.086C360.581 171.591 361.104 172.217 361.49 172.926C361.876 173.636 362.117 174.415 362.199 175.219C362.332 176.462 362.088 177.717 361.498 178.819C366.555 179.461 371.319 181.549 375.22 184.832C379.12 188.115 381.991 192.453 383.488 197.328C389.425 208.413 394.156 220.102 397.602 232.196C398.281 234.565 397.979 237.006 397.686 239.366C397.416 241.546 397.137 243.801 397.607 246.048C398.084 248.333 399.234 250.626 400.451 253.053C401.845 255.833 403.286 258.708 403.676 261.638L403.704 261.844L359.166 282.999Z" fill="#E4E4E4"/>
<path opacity="0.2" d="M329.073 226.024C331.055 230.882 333.843 235.37 337.317 239.301C337.912 240.012 338.541 240.71 339.199 241.409L342.574 246.707C355.018 237.378 365.1 200.643 365.1 200.643L351.06 197.912L329.073 226.024Z" fill="black"/>
<path d="M320.572 169.151C321.802 171.263 322.159 173.772 321.567 176.144C320.976 178.515 319.482 180.562 317.405 181.849C316.978 182.104 316.531 182.323 316.069 182.505L317.063 215.225L302.897 206.305L304.125 176.601C303.522 174.624 303.59 172.504 304.319 170.57C305.048 168.636 306.397 166.998 308.154 165.912C309.178 165.292 310.315 164.884 311.499 164.712C312.683 164.54 313.889 164.607 315.047 164.909C316.205 165.211 317.29 165.742 318.239 166.47C319.188 167.199 319.982 168.11 320.572 169.151V169.151Z" fill="#9E616A"/>
<path d="M318.308 202.874L302.729 205.09L303.399 237.358C303.438 239.66 304.065 241.913 305.22 243.905C306.375 245.896 308.019 247.559 309.998 248.736V248.736C312.415 250.158 315.229 250.756 318.015 250.44C320.802 250.123 323.41 248.91 325.447 246.981L362.226 211.597C364.814 209.141 366.363 205.787 366.554 202.225C366.745 198.662 365.564 195.162 363.254 192.443V192.443C362.111 191.09 360.707 189.98 359.127 189.179C357.547 188.379 355.822 187.904 354.054 187.783C352.287 187.662 350.514 187.897 348.839 188.475C347.164 189.052 345.623 189.961 344.306 191.146C343.942 191.471 343.597 191.815 343.27 192.177L318.985 220.122L318.308 202.874Z" fill="#E6E6E6"/>
<path d="M188.012 413.349L199.07 413.348L204.33 370.688L188.011 370.688L188.012 413.349Z" fill="#FFB6B6"/>
<path d="M125.337 167.746C137.525 167.746 147.406 157.863 147.406 145.671C147.406 133.48 137.525 123.597 125.337 123.597C113.148 123.597 103.267 133.48 103.267 145.671C103.267 157.863 113.148 167.746 125.337 167.746Z" fill="#FFB6B6"/>
<path d="M202.678 400.207H187.02L183.028 394.855L181.948 389.812L181.018 388.912C179.756 387.701 178.94 386.099 178.703 384.366C178.465 382.633 178.82 380.87 179.709 379.364L168.361 326.405C165.389 326.144 131.87 323.146 108.57 319.021C102.607 317.966 97.9511 315.067 94.7321 310.404C86.8223 298.947 90.2106 280.409 90.2457 280.224L90.2848 280.017L90.4938 279.993L144.917 273.883L144.991 273.918C146.797 274.774 189.303 294.958 196.249 301.905C199.386 305.043 206.384 323.683 207.95 343.501C208.231 347.051 207.221 350.666 206.244 354.163C205.33 357.434 204.386 360.817 204.572 364.015C204.86 368.95 205.133 374.126 205.384 379.4C205.424 380.24 206.057 381.11 206.669 381.951C207.308 382.83 207.912 383.66 207.951 384.528C208.323 392.95 202.82 400.028 202.764 400.099L202.678 400.207Z" fill="#2F2E41"/>
<path d="M206.244 204.467C205.058 204.143 203.816 204.082 202.605 204.29C201.393 204.498 200.242 204.969 199.233 205.67C198.223 206.371 197.379 207.285 196.761 208.348C196.143 209.41 195.765 210.595 195.654 211.82L177.317 217.552L178.082 229.548L203.864 221.089C205.932 221.139 207.948 220.428 209.527 219.091C211.107 217.754 212.142 215.884 212.435 213.835C212.728 211.786 212.26 209.701 211.119 207.974C209.978 206.248 208.243 205 206.244 204.467V204.467Z" fill="#FFB6B6"/>
<path d="M194.28 224.317L180.575 229.506L180.225 230.186C179.384 231.816 177.931 233.046 176.184 233.604C174.438 234.163 172.541 234.005 170.911 233.164V233.164L140.107 244.826C140.107 244.826 126.35 231.056 116.556 218.768L119.894 198.232C120.667 193.467 122.31 188.885 124.742 184.715C144.828 189.121 156.358 217.206 156.358 217.206L192.558 210.297L194.28 224.317Z" fill="#6C63FF"/>
<path d="M122.201 166.566C116.676 168.059 110.584 166.074 106.273 162.31C101.961 158.546 99.2638 153.212 97.7097 147.703C96.5715 143.668 96.0318 139.189 97.8279 135.401C99.6241 131.613 104.458 129.058 108.187 130.971C105.887 128.29 107.036 123.856 109.723 121.562C112.41 119.269 116.1 118.611 119.614 118.252C124.714 117.73 129.982 117.672 134.835 119.324C139.687 120.977 144.097 124.59 145.616 129.487C147.167 130.21 148.914 130.397 150.583 130.02C152.252 129.643 153.749 128.723 154.839 127.404C155.121 128.919 154.895 130.484 154.197 131.858C153.499 133.232 152.368 134.337 150.979 135.003L158.415 132.592C159.694 135.299 157.453 138.65 154.587 139.517C151.722 140.384 148.629 139.436 145.91 138.184C143.191 136.931 140.556 135.347 137.602 134.859C134.649 134.37 131.179 135.32 129.813 137.984C129.098 139.379 129.06 141.014 128.645 142.526C128.229 144.038 127.177 145.606 125.614 145.73C124.626 145.808 123.66 145.282 122.675 145.39C121.454 145.523 120.519 146.629 120.194 147.814C119.949 149.021 119.946 150.265 120.186 151.473L122.074 165.914" fill="#2F2E41"/>
<path d="M94.859 313.042C94.8548 313.042 94.8506 313.042 94.8465 313.041L94.672 313.011L94.6215 312.841C93.9871 310.707 93.1796 308.522 92.3988 306.408C91.2488 303.482 90.2779 300.488 89.4912 297.443C88.8721 294.533 88.4429 291.585 88.2062 288.619C87.9884 286.465 87.7631 284.238 87.3801 282.046C87.21 281.072 87.8545 280.151 88.4778 279.259C89.0557 278.433 89.6016 277.652 89.4871 276.913C89.3699 276.158 88.5326 275.328 87.7228 274.526C86.8352 273.647 85.9173 272.738 85.7873 271.781C84.0182 258.723 83.1948 245.555 83.3235 232.379C83.5063 214.149 84.33 201.722 85.7716 195.445C89.6478 178.567 107.556 175.487 110.36 175.107C110.658 174.311 111.117 173.586 111.708 172.976C112.299 172.365 113.009 171.883 113.795 171.559C114.58 171.235 115.423 171.076 116.273 171.093C117.122 171.109 117.959 171.3 118.731 171.653L131.455 177.48C134.036 178.666 136.346 180.37 138.241 182.487C140.136 184.603 141.575 187.087 142.469 189.783L144.36 195.547L145.306 234.24L140.059 261.488L150.311 276.87C95.6719 306.875 95.0349 313.042 94.859 313.042Z" fill="#6C63FF"/>
<path d="M182.062 409.05L185.657 409.05L199.693 403.341L207.216 409.049H207.217C211.468 409.05 215.546 410.739 218.552 413.746C221.558 416.753 223.247 420.831 223.247 425.083V425.604L182.063 425.606L182.062 409.05Z" fill="#2F2E41"/>
<path d="M210.835 232.079C209.775 231.456 208.592 231.074 207.368 230.958C206.145 230.843 204.911 230.998 203.753 231.411C202.595 231.824 201.543 232.486 200.669 233.351C199.795 234.215 199.121 235.26 198.694 236.413L179.497 237.162L176.91 246.106L204.202 247.504C206.186 248.092 208.317 247.931 210.19 247.053C212.064 246.175 213.551 244.64 214.368 242.738C215.186 240.837 215.278 238.702 214.627 236.737C213.976 234.772 212.627 233.115 210.835 232.079V232.079Z" fill="#FFB6B6"/>
<path d="M195.066 248.468L175.347 248.222L172.851 248.188L132.731 247.683C132.731 247.683 121.836 237.286 112.349 226.583L113.679 216.963C114.976 207.522 119.658 198.874 126.854 192.628C140.441 201.709 148.321 219.684 148.321 219.684L161.532 225.597C170.83 226.013 179.89 228.667 187.944 233.334L192.288 235.852L195.066 248.468Z" fill="#6C63FF"/>
<path d="M339.973 418.508L333.412 420.128L330.712 414.221L329.241 421.157L311.839 425.453C311.005 425.659 310.127 425.593 309.333 425.264C308.539 424.936 307.871 424.362 307.426 423.627C306.982 422.891 306.783 422.033 306.861 421.177C306.938 420.321 307.287 419.513 307.857 418.869L319.385 405.839L317.839 399.575L332.671 396.839L339.973 418.508Z" fill="#2F2E41"/>
<path d="M270.464 420.534L264.207 417.979L265.501 411.614L260.23 416.355L243.635 409.58C242.839 409.255 242.168 408.685 241.72 407.952C241.272 407.218 241.069 406.361 241.143 405.505C241.216 404.649 241.561 403.838 242.127 403.192C242.693 402.546 243.452 402.097 244.291 401.913L261.279 398.169L263.716 392.195L277.316 398.718L270.464 420.534Z" fill="#2F2E41"/>
<path d="M248.674 246.391H243.548C238.037 246.385 232.753 244.192 228.855 240.294C224.958 236.396 222.766 231.11 222.76 225.597V225.312H269.463V225.597C269.457 231.11 267.265 236.396 263.367 240.294C259.47 244.192 254.186 246.385 248.674 246.391V246.391Z" fill="#E4E4E4"/>
<path d="M243.548 217.907C243.548 219.322 240.985 220.47 240.985 220.47C240.985 220.47 238.422 219.322 238.422 217.907C238.422 216.491 240.985 215.343 240.985 215.343C240.985 215.343 243.548 216.491 243.548 217.907Z" fill="#3F3D56"/>
<path d="M258.926 217.907C258.926 219.322 256.363 220.47 256.363 220.47C256.363 220.47 253.8 219.322 253.8 217.907C253.8 216.491 256.363 215.343 256.363 215.343C256.363 215.343 258.926 216.491 258.926 217.907Z" fill="#3F3D56"/>
<path d="M248.674 223.034C248.674 224.45 246.111 225.597 246.111 225.597C246.111 225.597 243.548 224.45 243.548 223.034C243.548 221.618 246.111 220.47 246.111 220.47C246.111 220.47 248.674 221.618 248.674 223.034Z" fill="#3F3D56"/>
<path d="M230.733 212.494C232.149 212.494 233.296 211.347 233.296 209.931C233.296 208.515 232.149 207.367 230.733 207.367C229.318 207.367 228.17 208.515 228.17 209.931C228.17 211.347 229.318 212.494 230.733 212.494Z" fill="#3F3D56"/>
<path d="M193.458 204.422L233.881 210.006C234.247 210.056 234.599 210.18 234.915 210.37C235.231 210.561 235.506 210.813 235.722 211.112C235.938 211.412 236.092 211.752 236.173 212.112C236.254 212.472 236.261 212.845 236.194 213.208C236.127 213.571 235.987 213.917 235.783 214.225C235.578 214.532 235.314 214.795 235.005 214.997C234.696 215.2 234.35 215.338 233.986 215.402C233.623 215.467 233.25 215.457 232.89 215.374L193.139 206.152C192.918 206.101 192.726 205.966 192.602 205.777C192.477 205.587 192.431 205.357 192.472 205.134C192.513 204.911 192.639 204.713 192.822 204.58C193.006 204.447 193.234 204.391 193.458 204.422V204.422Z" fill="#E4E4E4"/>
<path d="M242.579 77.0295V0H237.453V77.0295C230.449 77.6687 223.938 80.9032 219.196 86.0982C214.454 91.2931 211.824 98.0733 211.823 105.108V112.799H229.764C229.764 115.518 230.844 118.127 232.767 120.05C234.69 121.973 237.297 123.053 240.016 123.053C242.735 123.053 245.343 121.973 247.265 120.05C249.188 118.127 250.268 115.518 250.268 112.799H268.209V105.108C268.208 98.0733 265.579 91.2931 260.837 86.0982C256.095 80.9032 249.583 77.6687 242.579 77.0295V77.0295Z" fill="#C0C0C0"/>
<path d="M308.576 57.7721V0H304.732V57.7721C299.479 58.2515 294.595 60.6774 291.039 64.5736C287.482 68.4698 285.51 73.555 285.51 78.8309V84.599H298.965C298.965 86.6387 299.775 88.5949 301.217 90.0372C302.659 91.4796 304.615 92.2898 306.654 92.2898C308.693 92.2898 310.649 91.4796 312.091 90.0372C313.533 88.5949 314.343 86.6387 314.343 84.599H327.799V78.8309C327.798 73.555 325.826 68.4698 322.27 64.5736C318.713 60.6774 313.829 58.2515 308.576 57.7721V57.7721Z" fill="#C0C0C0"/>
<path d="M178.718 57.7721V0H174.873V57.7721C169.621 58.2515 164.737 60.6774 161.18 64.5736C157.624 68.4698 155.652 73.555 155.651 78.8309V84.599H169.107C169.107 86.6387 169.917 88.5949 171.359 90.0372C172.801 91.4796 174.756 92.2898 176.796 92.2898C178.835 92.2898 180.791 91.4796 182.233 90.0372C183.675 88.5949 184.485 86.6387 184.485 84.599H197.94V78.8309C197.94 73.555 195.968 68.4698 192.411 64.5736C188.855 60.6774 183.971 58.2515 178.718 57.7721V57.7721Z" fill="#C0C0C0"/>
<path d="M410.107 135.828C406.48 131.597 404.755 125.984 401.856 121.179C398.956 116.375 393.91 112.075 388.579 113.193C384.904 113.964 382.064 117.207 380.626 120.823C379.189 124.439 378.919 128.427 378.667 132.334C378.756 124.305 373.468 116.522 366.183 113.961C358.899 111.399 350.182 114.256 345.604 120.706C343.607 118.854 340.999 117.8 338.276 117.743C335.554 117.686 332.904 118.63 330.831 120.396C326.737 124.056 325.831 131.023 328.842 135.691C331.853 140.36 338.374 142.099 343.159 139.51L344.85 141.066C343.898 144.398 345.745 148.333 348.849 149.587C351.366 150.604 354.92 150.434 355.862 153.076C356.52 154.923 355.289 156.893 353.981 158.312C352.672 159.731 351.118 161.195 350.961 163.159C350.724 166.121 353.784 168.196 356.566 168.821C363.274 170.327 370.717 167.22 374.583 161.299C374.657 161.185 374.738 161.071 374.826 160.956C376.995 158.182 378.576 154.994 379.472 151.588C380.367 148.181 380.56 144.628 380.036 141.145C379.819 139.777 380.038 138.759 380.981 138.435C385.058 137.034 396.482 139.974 399.939 142.631C403.396 145.288 406.165 148.805 409.495 151.634C412.825 154.463 417.069 156.645 421.297 155.874C424.683 155.257 427.564 152.798 429.502 149.832C431.44 146.866 432.555 143.408 433.554 139.972C426.065 144.299 415.817 142.488 410.107 135.828Z" fill="#2F2E41"/>
</svg>
